<svg xmlns="http://www.w3.org/2000/svg" viewBox="0 0 1988.65 473.33"><defs><style>.cls-1{fill:#df3814;}</style></defs><title>Event Logo 2</title><g id="Layer_2" data-name="Layer 2"><g id="Layer_1-2" data-name="Layer 1"><path class="cls-1" d="M687.57,243.38v44.07H546.12V243.38Z"/><path class="cls-1" d="M1044.32,89.77,908.75,383.57h-83.1l-136-293.8h71.77l105.77,243,105.34-243Z"/><path class="cls-1" d="M1325.1,383.57H1063.2V89.77h257.7v52H1130.77v65.06h178.38v51.62H1130.77v73H1325.1Z"/><path class="cls-1" d="M1667.15,89.77v293.8h-76L1428.34,173.71V383.57h-67.57V89.77h75.54l162.85,210.28V89.77Z"/><path class="cls-1" d="M1988.65,141.81H1877.42V383.57h-67.57V141.81H1698.63v-52h290Z"/><path class="cls-1" d="M397.15,0h-321A76.19,76.19,0,0,0,0,76.19v321a76.18,76.18,0,0,0,76.19,76.18h321a76.18,76.18,0,0,0,76.19-76.18v-321A76.19,76.19,0,0,0,397.15,0ZM385.93,266.53H150.2v64H326.6V295.34h59.33v15a75.65,75.65,0,0,1-75.63,75.65H163.09a75.66,75.66,0,0,1-75.68-75.65V163.07A75.64,75.64,0,0,1,163.09,87.4H310.3a75.63,75.63,0,0,1,75.63,75.67Z"/><path class="cls-1" d="M301.61,147.41h-127a24.05,24.05,0,0,0-24.05,24.05v50.25H325.66V171.46A24.05,24.05,0,0,0,301.61,147.41Z"/></g></g></svg>